<?xml version="1.0" encoding="UTF-8" standalone="no"?>
<svg
   xmlns:dc="http://purl.org/dc/elements/1.1/"
   xmlns:cc="http://creativecommons.org/ns#"
   xmlns:rdf="http://www.w3.org/1999/02/22-rdf-syntax-ns#"
   xmlns:svg="http://www.w3.org/2000/svg"
   xmlns="http://www.w3.org/2000/svg"
   xmlns:sodipodi="http://sodipodi.sourceforge.net/DTD/sodipodi-0.dtd"
   xmlns:inkscape="http://www.inkscape.org/namespaces/inkscape"
   width="390.00003"
   height="54"
   viewBox="0 0 390.00003 54"
   version="1.1"
   id="svg17"
   sodipodi:docname="logo-dark.svg"
   inkscape:version="0.92.2 5c3e80d, 2017-08-06">
  <metadata
     id="metadata21">
    <rdf:RDF>
      <cc:Work
         rdf:about="">
        <dc:format>image/svg+xml</dc:format>
        <dc:type
           rdf:resource="http://purl.org/dc/dcmitype/StillImage" />
        <dc:title>Logo Combo 3 Copy</dc:title>
      </cc:Work>
    </rdf:RDF>
  </metadata>
  <sodipodi:namedview
     pagecolor="#ffffff"
     bordercolor="#666666"
     borderopacity="1"
     objecttolerance="10"
     gridtolerance="10"
     guidetolerance="10"
     inkscape:pageopacity="0"
     inkscape:pageshadow="2"
     inkscape:window-width="2560"
     inkscape:window-height="1349"
     id="namedview19"
     showgrid="false"
     fit-margin-top="0"
     fit-margin-left="0"
     fit-margin-right="0"
     fit-margin-bottom="0"
     inkscape:zoom="1.6741573"
     inkscape:cx="171.87732"
     inkscape:cy="155.43483"
     inkscape:window-x="0"
     inkscape:window-y="0"
     inkscape:window-maximized="1"
     inkscape:current-layer="svg17" />
  <!-- Generator: Sketch 40.1 (33804) - http://www.bohemiancoding.com/sketch -->
  <title
     id="title2">Logo Combo 3 Copy</title>
  <desc
     id="desc4">Created with Sketch.</desc>
  <defs
     id="defs6" />
  <g
     id="g841"
     transform="matrix(1.0007617,0,0,1,1243.3631,-215.83033)"
     style="stroke-width:0.99961936;fill:#1a1a1a">
    <path
       style="font-style:normal;font-variant:normal;font-weight:normal;font-stretch:normal;font-size:medium;line-height:1.25;font-family:Lombok;-inkscape-font-specification:Lombok;letter-spacing:5.47735214px;word-spacing:0px;fill:#1a1a1a;fill-opacity:1;stroke:none;stroke-width:7.55617809;stroke-miterlimit:4;stroke-dasharray:none"
       d="m -1098.8656,228.78998 c -8.2526,0 -14.1673,6.23316 -14.1673,14.04825 0,7.81511 5.9147,14.04824 14.1673,14.04824 3.0929,0 5.9208,-0.95366 8.2126,-2.67252 l -0.3714,-0.41959 c -2.236,1.61943 -4.9438,2.56375 -7.8412,2.56375 -7.8783,0 -13.5594,-6.12094 -13.5594,-13.51988 0,-7.39892 5.6811,-13.51988 13.5594,-13.51988 2.8974,0 5.6052,0.94432 7.8412,2.56374 l 0.3714,-0.41959 c -2.2918,-1.71885 -5.1197,-2.67252 -8.2126,-2.67252 z m -73.8965,0.55614 v 26.98421 h 6.7392 c 4.4131,0 7.6706,-1.68152 9.8558,-4.20292 2.1853,-2.52141 3.2886,-5.90247 3.2886,-9.28918 0,-3.3867 -1.1033,-6.76777 -3.2886,-9.28918 -2.1852,-2.52141 -5.4427,-4.20293 -9.8558,-4.20293 z m 32.9044,0 v 9.38684 h 11.0152 v -0.60789 h -10.4073 v -8.17105 h 15.9687 v -0.6079 z m 61.6193,0 v 9.38684 h 11.0152 v -0.60789 h -10.4073 v -8.17105 h 15.9687 v -0.6079 z m 49.0698,0 v 15.91082 l -19.183,-15.74327 -0.3918,0.4769 20.1827,16.58537 v -17.22982 z m 11.2521,0 v 0.6079 h 8.183 v 26.37631 h 0.6079 v -26.37631 h 8.1831 v -0.6079 z m 28.77075,0 v 9.38684 h 11.0152 v -0.60789 h -10.40732 v -8.17105 h 15.96871 v -0.6079 z m 28.01636,0 v 9.38684 h 11.98274 c 2.59252,0 4.71316,-2.1632 4.71316,-4.67368 0,-2.5964 -2.11675,-4.71316 -4.71316,-4.71316 z m 51.00964,0 v 15.91082 l -19.18274,-15.74327 -0.39211,0.4769 20.18275,16.58537 v -17.22982 z m 14.79941,0 v 9.38684 h 11.0152 v -0.60789 h -10.40759 v -8.17105 h 15.9687 v -0.6079 z m 25.63304,0 v 0.6079 h 8.18303 v 26.37631 h 0.6076 v -26.37631 h 8.18305 v -0.6079 z m -302.4669,0.6079 h 6.1313 c 4.1089,0 7.2428,1.61706 9.3172,4.04152 2.0745,2.42445 3.1003,5.63646 3.1003,8.84269 0,3.20624 -1.0258,6.41823 -3.1003,8.84268 -2.0744,2.42446 -5.2083,4.04152 -9.3172,4.04152 h -6.1313 v -25.3573 z m 211.63271,0 h 11.37484 c 2.25165,0 4.10527,1.85363 4.10527,4.10526 0,2.21645 -1.85359,4.06579 -4.10527,4.06579 h -11.37484 v -7.75994 z m -89.70031,9.14649 v 17.22982 h 0.6076 v -15.91082 l 19.1834,15.74327 0.3918,-0.4769 z m 119.04884,0 v 17.22982 h 0.6076 v -15.91082 l 19.18333,15.74327 0.39182,-0.4769 z m -208.68474,7.84298 v 9.38684 h 16.5766 v -0.6079 h -15.9687 v -8.17105 h 10.4073 v -0.60789 z m 61.6193,0 v 9.38684 h 16.5766 v -0.6079 h -15.9687 v -8.17105 h 10.4073 v -0.60789 z m 89.09265,0 v 9.38684 h 16.57659 v -0.6079 h -15.96871 v -8.17105 h 10.40732 v -0.60789 z m 28.01636,0 v 9.38684 h 0.6079 v -8.77895 h 12.17455 l 4.72106,8.62281 0.52104,-0.30263 -4.85614,-8.92807 z m 65.80905,0 v 9.38684 h 16.57631 v -0.6079 h -15.9687 v -8.17105 h 10.40759 v -0.60789 z"
       id="path1635"
       inkscape:connector-curvature="0" />
    <path
       inkscape:connector-curvature="0"
       id="path1537-9"
       d="m -1219.037,215.83033 -7.7974,13.50497 h -15.5824 l 7.7912,13.49503 -7.7912,13.49503 h 15.5824 l -0.345,-0.59766 h -13.6032 l 10.2032,-5.88948 11.5424,19.99211 7.7971,-13.50497 h 15.5824 l -7.7912,-13.49503 7.7912,-13.49503 h -15.5824 z m -0.2994,1.71375 v 11.79122 h -6.8079 z m 0.5988,0 6.8076,11.79122 h -6.8076 z m -22.6441,12.3886 h 21.8213 l -10.9228,18.87748 z m 22.8684,0 h 21.8208 l -10.8983,18.8769 z m -0.2243,0.80555 10.3535,17.89297 -10.3535,-5.97776 z m -0.5988,0.001 v 11.91784 l -10.3544,5.97691 z m 0.3026,12.43451 10.3743,5.99005 h -20.7515 z m -15.2468,0.25438 3.4018,5.89152 -10.2035,5.88948 z m 30.4869,0 6.8017,11.781 -10.2026,-5.89094 z m -26.1398,6.33333 h 21.7933 l -10.8965,18.87367 z m 22.4395,0.0754 10.2026,5.89093 h -13.6035 z"
       style="fill:#1a1a1a;stroke-width:7.55617809;stroke-miterlimit:4;stroke-dasharray:none" />
  </g>
</svg>
