<?xml version="1.0" encoding="UTF-8" standalone="no"?>
<!-- Generator: Adobe Illustrator 16.0.0, SVG Export Plug-In . SVG Version: 6.00 Build 0)  -->

<svg
   xmlns:osb="http://www.openswatchbook.org/uri/2009/osb"
   xmlns:dc="http://purl.org/dc/elements/1.1/"
   xmlns:cc="http://creativecommons.org/ns#"
   xmlns:rdf="http://www.w3.org/1999/02/22-rdf-syntax-ns#"
   xmlns:svg="http://www.w3.org/2000/svg"
   xmlns="http://www.w3.org/2000/svg"
   xmlns:sodipodi="http://sodipodi.sourceforge.net/DTD/sodipodi-0.dtd"
   xmlns:inkscape="http://www.inkscape.org/namespaces/inkscape"
   version="1.1"
   id="Layer_1"
   x="0px"
   y="0px"
   width="2603.0959"
   height="360.70319"
   viewBox="0 0 2603.0959 360.70319"
   enable-background="new 0 0 612 792"
   xml:space="preserve"
   sodipodi:docname="logo-dark-large.svg"
   inkscape:version="0.92.2 5c3e80d, 2017-08-06"
   inkscape:export-filename="./logo-isotype-final.png"
   inkscape:export-xdpi="89.957619"
   inkscape:export-ydpi="89.957619"><metadata
     id="metadata1574"><rdf:RDF><cc:Work
         rdf:about=""><dc:format>image/svg+xml</dc:format><dc:type
           rdf:resource="http://purl.org/dc/dcmitype/StillImage" /><dc:title /></cc:Work></rdf:RDF></metadata><defs
     id="defs1572"><linearGradient
       id="linearGradient887"
       osb:paint="solid"><stop
         style="stop-color:#ffffff;stop-opacity:1;"
         offset="0"
         id="stop885" /></linearGradient></defs><sodipodi:namedview
     pagecolor="#ffffff"
     bordercolor="#666666"
     borderopacity="1"
     objecttolerance="10"
     gridtolerance="10"
     guidetolerance="10"
     inkscape:pageopacity="0"
     inkscape:pageshadow="2"
     inkscape:window-width="2560"
     inkscape:window-height="1349"
     id="namedview1570"
     showgrid="false"
     showguides="true"
     inkscape:guide-bbox="true"
     inkscape:zoom="0.5"
     inkscape:cx="1282.5266"
     inkscape:cy="459.20069"
     inkscape:window-x="0"
     inkscape:window-y="0"
     inkscape:window-maximized="1"
     inkscape:current-layer="Layer_1"
     fit-margin-top="0"
     fit-margin-left="0"
     fit-margin-right="0"
     fit-margin-bottom="0"><sodipodi:guide
       position="353.70926,90.21488"
       orientation="0,1"
       id="guide2203"
       inkscape:locked="false" /><sodipodi:guide
       position="262.97098,270.49223"
       orientation="0,1"
       id="guide1633"
       inkscape:locked="false" /><sodipodi:guide
       position="356.72098,266.5391"
       orientation="0,1"
       id="guide1658"
       inkscape:locked="false" /><sodipodi:guide
       position="347.97098,94.25785"
       orientation="0,1"
       id="guide1660"
       inkscape:locked="false" /><sodipodi:guide
       position="1207.3772,96.25785"
       orientation="1,0"
       id="guide1676"
       inkscape:locked="false" /><sodipodi:guide
       position="1283.8085,198.23"
       orientation="1,0"
       id="guide1678"
       inkscape:locked="false" /><sodipodi:guide
       position="312.33781,270.4942"
       orientation="1,0"
       id="guide1697"
       inkscape:locked="false" /><sodipodi:guide
       position="465.27179,270.42193"
       orientation="1,0"
       id="guide1701"
       inkscape:locked="false" /></sodipodi:namedview><path
     style="fill:#000000;stroke-width:0.39915931"
     inkscape:connector-curvature="0"
     id="path1553"
     d="M -449.25606,287.58094" /><path
     inkscape:connector-curvature="0"
     id="path1635"
     d="m 958.87726,86.566431 c -55.1244,0 -94.63281,41.635559 -94.63281,93.837889 0,52.20253 39.50841,93.83789 94.63281,93.83789 20.65998,0 39.54951,-6.37014 54.85744,-17.85156 l -2.4805,-2.80273 c -14.9358,10.81727 -33.02294,17.125 -52.37694,17.125 -52.62426,0 -90.57227,-40.88593 -90.57227,-90.3086 0,-49.42248 37.94801,-90.308592 90.57227,-90.308592 19.354,0 37.44114,6.307787 52.37694,17.125002 l 2.4805,-2.80274 C 998.42677,92.936644 979.53724,86.566431 958.87726,86.566431 Z M 465.27179,90.281275 V 270.52737 h 45.01563 c 29.478,0 51.23748,-11.23199 65.83398,-28.07422 14.59656,-16.84223 21.9668,-39.42666 21.9668,-62.04883 0,-22.6221 -7.37024,-45.2066 -21.9668,-62.04883 -14.5965,-16.84223 -36.35598,-28.074215 -65.83398,-28.074215 z m 219.79102,0 v 62.701175 h 73.57812 V 148.9219 H 689.12335 V 94.341821 h 106.66602 v -4.060546 z m 411.59769,0 v 62.701175 h 73.5781 V 148.9219 H 1100.721 V 94.341821 h 106.666 v -4.060546 z m 327.7714,0 V 196.56057 L 1296.2952,91.400415 1293.678,94.585962 1428.4925,205.37112 V 90.281275 Z m 75.1602,0 v 4.060546 h 54.6601 V 270.52737 h 4.0606 V 94.341821 h 54.6602 v -4.060546 z m 192.1797,0 v 62.701175 h 73.5781 v -4.06055 h -69.5176 V 94.341821 h 106.666 v -4.060546 z m 187.1406,0 v 62.701175 h 80.041 c 17.3172,0 31.4824,-14.44955 31.4824,-31.21875 0,-17.34313 -14.1392,-31.482425 -31.4824,-31.482425 z m 340.7285,0 V 196.56057 L 2091.5062,91.400415 2088.887,94.585962 2223.7015,205.37112 V 90.281275 Z m 98.8555,0 v 62.701175 h 73.5781 V 148.9219 H 2322.555 V 94.341821 h 106.666 v -4.060546 z m 171.2207,0 v 4.060546 h 54.6601 V 270.52737 h 4.0586 V 94.341821 h 54.6602 V 90.281275 Z M 469.33234,94.341821 h 40.95508 c 27.44637,0 48.37974,10.801449 62.23632,26.996089 13.85659,16.19458 20.70899,37.64979 20.70899,59.06641 0,21.41669 -6.8524,42.87183 -20.70899,59.06641 -13.85658,16.19464 -34.78995,26.99609 -62.23632,26.99609 H 469.33234 V 97.087915 Z m 1413.64066,0 h 75.9804 c 15.0403,0 27.4219,12.381659 27.4219,27.421879 0,14.80522 -12.3814,27.1582 -27.4219,27.1582 H 1882.973 V 97.087915 Z m -599.17,61.095709 v 115.08984 h 4.0586 v -106.2793 l 128.1387,105.16016 2.6172,-3.18555 z m 795.209,0 v 115.08984 h 4.0586 v -106.2793 l 128.1387,105.16016 2.6172,-3.18555 z M 685.06281,207.8262 v 62.70117 h 110.72656 v -4.06055 H 689.12335 v -54.58007 h 69.51758 v -4.06055 z m 411.59769,0 v 62.70117 h 110.7265 v -4.06055 h -106.666 v -54.58007 h 69.5176 v -4.06055 z m 595.1113,0 v 62.70117 h 110.7265 v -4.06055 h -106.666 v -54.58007 h 69.5176 v -4.06055 z m 187.1406,0 v 62.70117 h 4.0606 v -58.64062 h 81.3222 l 31.5352,57.59765 3.4804,-2.02148 -32.4375,-59.63672 z m 439.584,0 v 62.70117 h 110.7246 v -4.06055 h -106.666 v -54.58007 h 69.5195 v -4.06055 z"
     style="font-style:normal;font-variant:normal;font-weight:normal;font-stretch:normal;font-size:medium;line-height:1.25;font-family:Lombok;-inkscape-font-specification:Lombok;letter-spacing:5.47735214px;word-spacing:0px;fill:#000000;fill-opacity:1;stroke:none;stroke-width:7.55905533;stroke-miterlimit:4;stroke-dasharray:none" /><path
     style="fill:#000000;stroke-width:0.5;stroke-miterlimit:4;stroke-dasharray:none"
     d="m 156.1699,0 -52.084,90.209 H 0 L 52.0429,180.3516 0,270.4942 h 104.0859 l -2.3047,-3.9922 H 10.916 l 68.1543,-39.3399 77.0996,133.5411 52.082,-90.209 h 104.08591 l -52.0429,-90.1426 52.0429,-90.1426 H 208.2519 Z m -2,11.4473 V 90.209 h -45.4746 z m 4,0 45.4726,78.7617 H 158.1699 Z M 6.914,94.1993 H 152.6738 L 79.7128,220.295 Z m 152.7539,0 h 145.75591 l -72.7969,126.0918 z m -1.498,5.3808 69.1582,119.5195 -69.1582,-39.9296 z m -4,0.01 v 79.6074 l -69.1641,39.9239 z m 2.0215,83.0586 69.2968,40.0117 H 86.875 Z M 54.3476,184.3479 77.0703,223.7014 8.914,263.0413 Z m 203.64261,0 45.43359,78.6934 -68.1504,-39.3496 z M 83.3847,226.6526 H 228.95701 L 156.1718,352.7228 Z m 149.8887,0.5039 68.15041,39.3496 h -90.8672 z"
     id="path1537-9"
     inkscape:connector-curvature="0" /><path
     style="font-style:normal;font-variant:normal;font-weight:normal;font-stretch:normal;font-size:medium;line-height:1.25;font-family:Lombok;-inkscape-font-specification:Lombok;letter-spacing:5.47735214px;word-spacing:0px;fill:#000000;fill-opacity:1;stroke:none;stroke-width:7.55905533;stroke-miterlimit:4;stroke-dasharray:none"
     d="m 958.87726,86.566431 c -55.1244,0 -94.63281,41.635559 -94.63281,93.837889 0,52.20253 39.50841,93.83789 94.63281,93.83789 20.65998,0 39.54951,-6.37014 54.85744,-17.85156 l -2.4805,-2.80273 c -14.9358,10.81727 -33.02294,17.125 -52.37694,17.125 -52.62426,0 -90.57227,-40.88593 -90.57227,-90.3086 0,-49.42248 37.94801,-90.308592 90.57227,-90.308592 19.354,0 37.44114,6.307787 52.37694,17.125002 l 2.4805,-2.80274 C 998.42677,92.936644 979.53724,86.566431 958.87726,86.566431 Z M 465.27179,90.281275 V 270.52737 h 45.01563 c 29.478,0 51.23748,-11.23199 65.83398,-28.07422 14.59656,-16.84223 21.9668,-39.42666 21.9668,-62.04883 0,-22.6221 -7.37024,-45.2066 -21.9668,-62.04883 -14.5965,-16.84223 -36.35598,-28.074215 -65.83398,-28.074215 z m 219.79102,0 v 62.701175 h 73.57812 V 148.9219 H 689.12335 V 94.341821 h 106.66602 v -4.060546 z m 411.59769,0 v 62.701175 h 73.5781 V 148.9219 H 1100.721 V 94.341821 h 106.666 v -4.060546 z m 327.7714,0 V 196.56057 L 1296.2952,91.400415 1293.678,94.585962 1428.4925,205.37112 V 90.281275 Z m 75.1602,0 v 4.060546 h 54.6601 V 270.52737 h 4.0606 V 94.341821 h 54.6602 v -4.060546 z m 192.1797,0 v 62.701175 h 73.5781 v -4.06055 h -69.5176 V 94.341821 h 106.666 v -4.060546 z m 187.1406,0 v 62.701175 h 80.041 c 17.3172,0 31.4824,-14.44955 31.4824,-31.21875 0,-17.34313 -14.1392,-31.482425 -31.4824,-31.482425 z m 340.7285,0 V 196.56057 L 2091.5062,91.400415 2088.887,94.585962 2223.7015,205.37112 V 90.281275 Z m 98.8555,0 v 62.701175 h 73.5781 V 148.9219 H 2322.555 V 94.341821 h 106.666 v -4.060546 z m 171.2207,0 v 4.060546 h 54.6601 V 270.52737 h 4.0586 V 94.341821 h 54.6602 V 90.281275 Z M 469.33234,94.341821 h 40.95508 c 27.44637,0 48.37974,10.801449 62.23632,26.996089 13.85659,16.19458 20.70899,37.64979 20.70899,59.06641 0,21.41669 -6.8524,42.87183 -20.70899,59.06641 -13.85658,16.19464 -34.78995,26.99609 -62.23632,26.99609 H 469.33234 V 97.087915 Z m 1413.64066,0 h 75.9804 c 15.0403,0 27.4219,12.381659 27.4219,27.421879 0,14.80522 -12.3814,27.1582 -27.4219,27.1582 H 1882.973 V 97.087915 Z m -599.17,61.095709 v 115.08984 h 4.0586 v -106.2793 l 128.1387,105.16016 2.6172,-3.18555 z m 795.209,0 v 115.08984 h 4.0586 v -106.2793 l 128.1387,105.16016 2.6172,-3.18555 z M 685.06281,207.8262 v 62.70117 h 110.72656 v -4.06055 H 689.12335 v -54.58007 h 69.51758 v -4.06055 z m 411.59769,0 v 62.70117 h 110.7265 v -4.06055 h -106.666 v -54.58007 h 69.5176 v -4.06055 z m 595.1113,0 v 62.70117 h 110.7265 v -4.06055 h -106.666 v -54.58007 h 69.5176 v -4.06055 z m 187.1406,0 v 62.70117 h 4.0606 v -58.64062 h 81.3222 l 31.5352,57.59765 3.4804,-2.02148 -32.4375,-59.63672 z m 439.584,0 v 62.70117 h 110.7246 v -4.06055 h -106.666 v -54.58007 h 69.5195 v -4.06055 z"
     id="path824"
     inkscape:connector-curvature="0" /><path
     inkscape:connector-curvature="0"
     id="path1399"
     d="m 156.1699,0 -52.084,90.209 H 0 L 52.0429,180.3516 0,270.4942 h 104.0859 l -2.3047,-3.9922 H 10.916 l 68.1543,-39.3399 77.0996,133.5411 52.082,-90.209 h 104.08591 l -52.0429,-90.1426 52.0429,-90.1426 H 208.2519 Z m -2,11.4473 V 90.209 h -45.4746 z m 4,0 45.4726,78.7617 H 158.1699 Z M 6.914,94.1993 H 152.6738 L 79.7128,220.295 Z m 152.7539,0 h 145.75591 l -72.7969,126.0918 z m -1.498,5.3808 69.1582,119.5195 -69.1582,-39.9296 z m -4,0.01 v 79.6074 l -69.1641,39.9239 z m 2.0215,83.0586 69.2968,40.0117 H 86.875 Z M 54.3476,184.3479 77.0703,223.7014 8.914,263.0413 Z m 203.64261,0 45.43359,78.6934 -68.1504,-39.3496 z M 83.3847,226.6526 H 228.95701 L 156.1718,352.7228 Z m 149.8887,0.5039 68.15041,39.3496 h -90.8672 z"
     style="fill:#000000;stroke-width:4;stroke-miterlimit:4;stroke-dasharray:none" /></svg>