<?xml version="1.0" encoding="UTF-8" standalone="no"?>
<!-- Generator: Adobe Illustrator 16.0.0, SVG Export Plug-In . SVG Version: 6.00 Build 0)  -->

<svg
   xmlns:osb="http://www.openswatchbook.org/uri/2009/osb"
   xmlns:dc="http://purl.org/dc/elements/1.1/"
   xmlns:cc="http://creativecommons.org/ns#"
   xmlns:rdf="http://www.w3.org/1999/02/22-rdf-syntax-ns#"
   xmlns:svg="http://www.w3.org/2000/svg"
   xmlns="http://www.w3.org/2000/svg"
   xmlns:sodipodi="http://sodipodi.sourceforge.net/DTD/sodipodi-0.dtd"
   xmlns:inkscape="http://www.inkscape.org/namespaces/inkscape"
   version="1.1"
   id="Layer_1"
   x="0px"
   y="0px"
   width="732.57617"
   height="504.65469"
   viewBox="0 0 732.57616 504.6547"
   enable-background="new 0 0 612 792"
   xml:space="preserve"
   sodipodi:docname="logo-light-large.svg"
   inkscape:version="0.92.2 5c3e80d, 2017-08-06"
   inkscape:export-filename="./logo-isotype-final.png"
   inkscape:export-xdpi="89.957619"
   inkscape:export-ydpi="89.957619"><metadata
     id="metadata1574"><rdf:RDF><cc:Work
         rdf:about=""><dc:format>image/svg+xml</dc:format><dc:type
           rdf:resource="http://purl.org/dc/dcmitype/StillImage" /><dc:title></dc:title></cc:Work></rdf:RDF></metadata><defs
     id="defs1572"><linearGradient
       id="linearGradient887"
       osb:paint="solid"><stop
         style="stop-color:#ffffff;stop-opacity:1;"
         offset="0"
         id="stop885" /></linearGradient></defs><sodipodi:namedview
     pagecolor="#ffffff"
     bordercolor="#666666"
     borderopacity="1"
     objecttolerance="10"
     gridtolerance="10"
     guidetolerance="10"
     inkscape:pageopacity="0"
     inkscape:pageshadow="2"
     inkscape:window-width="2560"
     inkscape:window-height="1349"
     id="namedview1570"
     showgrid="false"
     showguides="false"
     inkscape:guide-bbox="true"
     inkscape:zoom="1.4142136"
     inkscape:cx="483.45883"
     inkscape:cy="194.84932"
     inkscape:window-x="0"
     inkscape:window-y="0"
     inkscape:window-maximized="1"
     inkscape:current-layer="Layer_1"
     fit-margin-top="0"
     fit-margin-left="0"
     fit-margin-right="0"
     fit-margin-bottom="0"><sodipodi:guide
       position="-1984.6032,-1464.8672"
       orientation="0,1"
       id="guide2203"
       inkscape:locked="false" /><sodipodi:guide
       position="-2075.3415,-1284.5899"
       orientation="0,1"
       id="guide1633"
       inkscape:locked="false" /><sodipodi:guide
       position="-1981.5915,-1288.543"
       orientation="0,1"
       id="guide1658"
       inkscape:locked="false" /><sodipodi:guide
       position="-1990.3415,-1460.8242"
       orientation="0,1"
       id="guide1660"
       inkscape:locked="false" /><sodipodi:guide
       position="-1130.9353,-1458.8242"
       orientation="1,0"
       id="guide1676"
       inkscape:locked="false" /><sodipodi:guide
       position="-1054.504,-1356.8521"
       orientation="1,0"
       id="guide1678"
       inkscape:locked="false" /><sodipodi:guide
       position="-2025.9747,-1284.5879"
       orientation="1,0"
       id="guide1697"
       inkscape:locked="false" /><sodipodi:guide
       position="-1873.0407,-1284.6602"
       orientation="1,0"
       id="guide1701"
       inkscape:locked="false" /></sodipodi:namedview><path
     style="fill:#000000;stroke-width:0.39915931"
     inkscape:connector-curvature="0"
     id="path1553"
     d="M -2787.5686,1986.6145" /><path
     style="font-style:normal;font-variant:normal;font-weight:normal;font-stretch:normal;font-size:medium;line-height:1.25;font-family:Lombok;-inkscape-font-specification:Lombok;letter-spacing:5.47735214px;word-spacing:0px;fill:#f2f2f2;fill-opacity:1;stroke:none;stroke-width:7.55905485;stroke-miterlimit:4;stroke-dasharray:none"
     d="m 169.9531,437.6059 c -19.5676,0 -33.7968,14.9533 -33.7968,33.5254 0,18.572 14.2292,33.5234 33.7968,33.5234 7.3591,0 14.1362,-2.2788 19.6211,-6.3926 l 1.3008,-0.9765 -2.8262,-3.1934 -1.1015,0.7988 c -4.8555,3.5167 -10.7151,5.5586 -16.9942,5.5586 -17.1821,0 -29.4101,-13.2198 -29.4101,-29.3183 0,-16.0987 12.228,-29.3204 29.4101,-29.3204 6.2791,0 12.1387,2.0418 16.9942,5.5586 l 1.1015,0.7989 2.8262,-3.1934 -1.3008,-0.9766 c -5.4849,-4.1139 -12.262,-6.3925 -19.6211,-6.3925 z m 114.9434,1.039 -2.7969,3.4043 49.6191,40.7754 v -43.9512 h -4.3867 v 1.5 33.0977 z m 271.3828,0 -2.7988,3.4043 49.6191,40.7754 v -43.9512 h -4.3848 v 1.5 33.0997 z M 0,438.8734 v 1.5 63.0137 h 16.8613 c 10.441,0 18.3532,-4.0438 23.6016,-10.0996 5.2524,-6.0605 7.8633,-14.1102 7.8633,-22.1562 0,-8.0461 -2.6109,-16.0978 -7.8633,-22.1582 -5.2484,-6.056 -13.1606,-10.0997 -23.6016,-10.0997 z m 75.0078,0 v 1.5 22.8985 h 28.1094 v -4.3848 H 79.3926 v -15.6269 h 36.4023 v -4.3868 z m 140.4668,0 v 1.5 22.8985 h 28.1094 v -4.3848 h -23.7246 v -15.6269 h 36.4023 v -4.3868 z m 137.5078,0 v 1.5 2.8868 h 18.6543 v 60.1269 h 4.3848 v -60.1269 h 18.6543 v -4.3868 z m 65.586,0 v 1.5 22.8985 h 28.1093 v -4.3848 h -23.7246 v -15.6269 h 36.4024 v -4.3868 z m 63.8652,0 v 1.5 22.8985 H 511.25 c 6.7442,0 12.2441,-5.5869 12.2441,-12.1543 0,-6.734 -5.5101,-12.2442 -12.2441,-12.2442 z m 150.0176,0 v 1.5 22.8985 h 28.1093 v -4.3848 h -23.7246 v -15.6269 h 36.4024 v -4.3868 z m 58.4316,0 v 1.5 2.8868 h 18.6543 v 60.1269 h 4.3848 v -60.1269 h 18.6543 v -4.3868 z m -686.498,4.3868 h 12.4765 c 8.9732,0 15.6417,3.4773 20.0996,8.6875 4.4622,5.215 6.7071,12.1945 6.7071,19.1836 0,6.9889 -2.2449,13.9664 -6.7071,19.1816 -4.4579,5.2101 -11.1264,8.6875 -20.0996,8.6875 H 4.3848 Z m 482.4355,0 H 511.25 c 4.3095,0 7.8574,3.5478 7.8574,7.8574 0,4.2162 -3.5459,7.7695 -7.8574,7.7695 h -24.4297 z m -207.4805,16.1757 v 3.1739 40.7773 h 4.3848 v -34.5996 l 42.4375,34.8281 2.7969,-3.4043 z m 271.3829,0 v 3.1739 40.7773 h 4.3847 v -34.5996 l 42.4375,34.8281 2.7969,-3.4043 z M 75.0078,478.9887 v 1.5 22.8984 h 40.7871 v -4.3867 H 79.3926 v -15.627 h 23.7246 v -4.3847 z m 140.4668,0 v 1.5 22.8984 h 40.7871 v -4.3867 h -36.4023 v -15.627 h 23.7246 v -4.3847 z m 203.0938,0 v 1.5 22.8984 h 40.7871 v -4.3867 h -36.4024 v -15.627 h 23.7246 v -4.3847 z m 63.8652,0 v 1.5 22.8984 h 4.3867 v -20.0137 h 25.3633 l 11.0742,20.2266 3.7793,-2.1953 -12.1934,-22.416 z m 150.0176,0 v 1.5 22.8984 h 40.7871 v -4.3867 h -36.4024 v -15.627 h 23.7246 v -4.3847 z"
     id="path1635"
     inkscape:connector-curvature="0" /><path
     style="fill:#f2f2f2;stroke-width:0.5;stroke-miterlimit:4;stroke-dasharray:none"
     d="M 366.2891,0 312.9678,92.3521 H 206.409 l 53.2794,92.2841 -53.2794,92.2842 h 106.5588 l -2.3595,-4.0871 h -93.0239 l 69.7734,-40.2745 78.9313,136.7137 53.3193,-92.3521 H 526.1671 L 472.8879,184.6362 526.1671,92.3521 H 419.6084 Z m -2.0475,11.7192 v 80.6329 h -46.5549 z m 4.095,0 46.5529,80.6329 H 368.3366 Z M 213.4873,96.4372 H 362.71 l -74.6943,129.0914 z m 156.3829,0 H 519.089 l -74.5265,129.0874 z m -1.5336,5.5086 70.8012,122.359 -70.8012,-40.8782 z m -4.095,0.01 v 81.4986 l -70.8072,40.8724 z m 2.0695,85.0318 70.9432,40.9623 H 295.3479 Z m -104.2633,1.7396 23.2625,40.2885 -69.7755,40.2744 z m 208.4805,0 46.513,80.5629 -69.7693,-40.2844 z M 291.7748,232.037 H 440.8054 L 366.291,361.1023 Z m 153.4496,0.5158 69.7694,40.2844 h -93.0259 z"
     id="path1537-9"
     inkscape:connector-curvature="0" /></svg>